<svg id="visual" viewBox="0 0 900 600" width="900" height="600" xmlns="http://www.w3.org/2000/svg" xmlns:xlink="http://www.w3.org/1999/xlink" version="1.1"><rect x="0" y="0" width="900" height="600" fill="#FFFFFF"></rect><defs><linearGradient id="grad1_0" x1="33.3%" y1="0%" x2="100%" y2="100%"><stop offset="20%" stop-color="#ffffff" stop-opacity="1"></stop><stop offset="80%" stop-color="#ffffff" stop-opacity="1"></stop></linearGradient></defs><defs><linearGradient id="grad2_0" x1="0%" y1="0%" x2="66.7%" y2="100%"><stop offset="20%" stop-color="#ffffff" stop-opacity="1"></stop><stop offset="80%" stop-color="#ffffff" stop-opacity="1"></stop></linearGradient></defs><g transform="translate(900, 0)"><path d="M0 270.4C-19.1 259.8 -38.1 249.3 -54.3 237.9C-70.5 226.5 -83.7 214.3 -99.8 207.2C-115.9 200.2 -134.7 198.3 -152.8 191.5C-170.8 184.8 -188 173.2 -197.8 157.7C-207.6 142.3 -210 122.9 -221.6 106.7C-233.2 90.5 -254 77.4 -263.6 60.2C-273.3 42.9 -271.9 21.5 -270.4 0L0 0Z" fill="#029646"></path></g><g transform="translate(0, 600)"><path d="M0 -270.4C21.4 -268.6 42.7 -266.8 57.6 -252.5C72.5 -238.2 80.9 -211.3 97.6 -202.7C114.3 -194.1 139.4 -203.8 160.9 -201.7C182.3 -199.6 200.3 -185.6 211.4 -168.6C222.5 -151.6 226.9 -131.5 235.2 -113.2C243.4 -95 255.7 -78.4 262.3 -59.9C268.8 -41.3 269.6 -20.6 270.4 0L0 0Z" fill="#029646"></path></g></svg>