<svg id="visual" viewBox="0 0 900 600" width="900" height="600" xmlns="http://www.w3.org/2000/svg" xmlns:xlink="http://www.w3.org/1999/xlink" version="1.1"><rect x="0" y="0" width="900" height="600" fill="#FFFFFF"></rect><defs><linearGradient id="grad1_0" x1="33.3%" y1="100%" x2="100%" y2="0%"><stop offset="20%" stop-color="#ffffff" stop-opacity="1"></stop><stop offset="80%" stop-color="#ffffff" stop-opacity="1"></stop></linearGradient></defs><defs><linearGradient id="grad2_0" x1="0%" y1="100%" x2="66.7%" y2="0%"><stop offset="20%" stop-color="#ffffff" stop-opacity="1"></stop><stop offset="80%" stop-color="#ffffff" stop-opacity="1"></stop></linearGradient></defs><g transform="translate(900, 600)"><path d="M-243.4 0C-237.2 -16.7 -231 -33.4 -229.1 -52.3C-227.2 -71.2 -229.5 -92.3 -217.1 -104.6C-204.7 -116.8 -177.6 -120.1 -161.8 -129.1C-146.1 -138 -141.8 -152.6 -134.7 -168.9C-127.5 -185.2 -117.6 -203.2 -103.7 -215.3C-89.8 -227.4 -72.1 -233.6 -54.2 -237.3C-36.2 -241 -18.1 -242.2 0 -243.4L0 0Z" fill="#029646"></path></g><g transform="translate(0, 0)"><path d="M243.4 0C229.8 16.8 216.1 33.6 203.8 46.5C191.4 59.5 180.2 68.6 181.1 87.2C182 105.8 194.8 134 190.3 151.7C185.7 169.5 163.8 177 143.4 179.8C123 182.7 104 181 88.5 183.8C73 186.6 60.9 194 46.7 204.7C32.5 215.4 16.3 229.4 0 243.4L0 0Z" fill="#029646"></path></g></svg>